<svg xmlns="http://www.w3.org/2000/svg" width="17.03" height="17" viewBox="0 0 17.03 17">
  <metadata><?xpacket begin="﻿" id="W5M0MpCehiHzreSzNTczkc9d"?>
<x:xmpmeta xmlns:x="adobe:ns:meta/" x:xmptk="Adobe XMP Core 5.6-c138 79.159824, 2016/09/14-01:09:01        ">
   <rdf:RDF xmlns:rdf="http://www.w3.org/1999/02/22-rdf-syntax-ns#">
      <rdf:Description rdf:about=""/>
   </rdf:RDF>
</x:xmpmeta>
<?xpacket end="w"?></metadata>
<defs>
    <style>
      .cls-1 {
        fill: #fff;
        fill-rule: evenodd;
      }
    </style>
  </defs>
  <path id="Shape_1_copy_6" data-name="Shape 1 copy 6" class="cls-1" d="M1129.45,31h-13.6a0.85,0.85,0,0,1-.85-0.851V16.539a0.85,0.85,0,0,1,.85-0.851h7.65v1.7h-6.8V29.3h11.9V22.493h1.7V30.15A0.85,0.85,0,0,1,1129.45,31Zm-6.55-7.905a0.854,0.854,0,0,1,0-1.2l7.65-7.656a0.849,0.849,0,1,1,1.2,1.2l-7.65,7.656A0.847,0.847,0,0,1,1122.9,23.095Z" transform="translate(-1115 -14)"/>
</svg>
